<?xml version="1.0" standalone="no"?>
<!DOCTYPE svg PUBLIC "-//W3C//DTD SVG 20010904//EN"
 "http://www.w3.org/TR/2001/REC-SVG-20010904/DTD/svg10.dtd">
<svg version="1.0" xmlns="http://www.w3.org/2000/svg"
 width="1024.000000pt" height="1024.000000pt" viewBox="0 0 1024.000000 1024.000000"
 preserveAspectRatio="xMidYMid meet">

<g transform="translate(0.000000,1024.000000) scale(0.100000,-0.100000)"
fill="#000000" stroke="none">
<path d="M5175 6210 c-3 -5 -105 -85 -226 -177 -173 -131 -219 -171 -219 -189
0 -33 16 -38 49 -15 37 27 41 26 41 -3 0 -16 -12 -32 -40 -51 -23 -16 -40 -36
-40 -47 0 -16 3 -17 23 -7 12 6 30 18 40 27 16 14 17 13 17 -14 0 -23 -8 -33
-40 -52 -26 -14 -40 -30 -40 -43 0 -19 0 -19 40 1 l40 20 0 -35 c0 -19 -3 -34
-7 -33 -20 6 -73 -26 -73 -43 0 -23 12 -24 50 -4 l30 16 0 -36 c0 -23 -4 -34
-11 -30 -5 4 -23 1 -40 -5 -21 -9 -29 -19 -29 -36 0 -24 0 -24 36 -9 47 19 44
20 44 -16 0 -16 -3 -28 -8 -25 -4 2 -22 -2 -40 -9 -22 -10 -32 -21 -32 -35 0
-21 7 -22 58 -3 7 3 12 -4 12 -20 0 -20 -7 -28 -35 -37 -27 -9 -35 -17 -35
-36 0 -28 5 -29 43 -10 26 14 27 14 27 -13 0 -23 -6 -30 -32 -37 -23 -7 -34
-17 -36 -33 -3 -22 -1 -23 37 -16 39 6 41 6 41 -19 0 -22 -5 -27 -40 -32 -34
-6 -40 -10 -40 -32 0 -22 3 -24 31 -18 17 3 35 6 40 6 5 0 16 26 26 58 15 49
17 102 17 395 -1 185 3 337 7 337 5 0 9 5 9 11 0 5 -5 7 -11 3 -8 -5 -9 -2 -3
9 9 15 98 87 108 87 3 0 6 -78 6 -172 0 -159 23 -378 40 -378 3 0 4 128 2 284
l-3 284 60 46 c33 25 64 46 71 46 7 0 10 -19 8 -51 -3 -50 -4 -52 -60 -91 -48
-34 -58 -46 -58 -70 l0 -29 55 31 55 31 0 -34 c0 -32 -5 -37 -60 -66 -48 -26
-60 -37 -60 -57 0 -30 14 -30 69 1 23 14 45 25 47 25 2 0 4 -15 4 -33 0 -29
-5 -36 -37 -51 -68 -32 -82 -44 -76 -66 6 -23 13 -23 76 4 l37 16 0 -33 c0
-30 -4 -34 -60 -56 -54 -22 -60 -27 -60 -53 0 -32 5 -32 79 -2 43 18 41 19 41
-19 0 -31 -3 -34 -57 -54 -49 -17 -58 -24 -61 -47 -3 -25 -1 -26 25 -20 15 4
38 11 51 15 37 14 42 11 42 -24 0 -33 -2 -34 -55 -47 -41 -10 -54 -17 -50 -28
3 -7 5 -20 5 -28 0 -10 6 -14 18 -10 9 2 32 7 50 11 31 6 32 6 32 -28 0 -34
-2 -35 -46 -42 -41 -6 -45 -9 -40 -28 3 -12 6 -25 6 -30 0 -4 18 -4 41 -1 l40
7 -3 -34 c-3 -30 -7 -34 -35 -37 -37 -4 -36 -2 -23 -36 7 -19 17 -26 35 -26
21 0 25 -5 25 -31 0 -22 -5 -32 -20 -36 -13 -3 -20 -14 -20 -29 0 -17 6 -24
20 -24 16 0 20 -7 20 -33 0 -18 -4 -37 -9 -42 -6 -6 3 -73 23 -175 l32 -165
22 115 c12 63 26 147 32 185 10 64 15 83 35 153 5 16 2 22 -9 22 -12 0 -16 10
-16 36 0 31 3 36 20 31 13 -3 20 0 20 8 0 7 3 20 6 29 5 12 0 16 -20 16 -23 0
-26 4 -26 34 0 32 3 35 33 38 27 2 33 8 35 31 3 25 1 27 -32 27 -35 0 -36 1
-36 36 l0 35 44 -6 c41 -6 44 -5 48 19 5 23 1 27 -31 36 -20 5 -42 10 -48 10
-8 0 -13 14 -13 36 0 33 2 36 23 30 12 -4 37 -9 55 -13 29 -5 32 -3 32 20 0
23 -7 28 -55 43 -52 17 -55 19 -55 51 0 38 -2 37 41 19 74 -30 79 -30 79 1 0
26 -6 31 -57 50 -55 19 -58 22 -61 57 l-3 37 51 -26 c29 -15 53 -25 55 -23 2
2 5 14 7 28 3 21 -5 28 -54 52 -54 26 -58 30 -58 63 l0 35 55 -31 c53 -30 55
-30 57 -10 0 12 1 25 2 30 1 6 -24 23 -54 39 -47 25 -55 34 -58 61 -2 17 0 31
4 31 4 0 29 -13 55 -30 l49 -30 0 33 c-1 28 -7 36 -55 65 l-55 33 0 60 0 60
63 -43 62 -44 2 -194 c1 -107 2 -217 3 -245 l1 -50 15 50 c8 28 17 109 21 181
l6 132 48 -35 49 -35 0 25 c0 19 -12 33 -50 57 -41 27 -50 37 -50 62 l0 29 45
-32 c25 -18 50 -38 55 -44 5 -6 10 -177 12 -380 4 -434 6 -446 76 -456 41 -5
42 -4 42 22 0 25 -4 28 -37 31 -33 3 -38 7 -41 30 -3 25 -2 26 37 21 37 -5 41
-3 41 15 0 16 -10 24 -40 32 -33 9 -40 15 -40 35 0 22 2 23 32 14 45 -12 48
-12 48 11 0 21 -27 40 -59 40 -17 0 -21 6 -21 30 l0 29 40 -14 c39 -14 40 -14
40 9 0 23 -33 46 -65 46 -10 0 -15 10 -15 30 l0 31 30 -16 c39 -20 50 -19 50
6 0 15 -11 25 -40 36 -31 12 -40 21 -40 40 0 27 6 28 40 8 34 -20 40 -19 40 8
0 18 -10 28 -40 42 -30 14 -40 24 -40 42 0 23 0 23 37 8 20 -8 38 -13 41 -11
10 11 -10 38 -43 57 -24 15 -35 28 -35 45 l0 23 35 -21 c20 -11 38 -18 41 -15
11 10 -17 47 -46 62 -21 11 -30 23 -30 40 0 30 7 31 40 5 34 -27 40 -25 40 13
0 31 -12 42 -227 207 -125 96 -230 176 -234 178 -4 2 -10 -2 -14 -8z"/>
<path d="M4894 5846 c-21 -19 -36 -37 -33 -41 9 -9 99 56 93 67 -9 14 -19 9
-60 -26z"/>
<path d="M4902 5770 c-44 -31 -47 -37 -34 -57 13 -21 92 33 92 63 0 31 -8 30
-58 -6z"/>
<path d="M5430 5772 c0 -20 9 -33 35 -49 19 -13 39 -23 45 -23 5 0 10 10 10
23 -1 15 -14 30 -45 49 l-45 27 0 -27z"/>
<path d="M5430 5667 c0 -14 13 -30 35 -44 44 -29 55 -29 55 0 0 17 -11 28 -45
45 l-45 22 0 -23z"/>
<path d="M4898 5659 c-16 -11 -28 -29 -28 -40 0 -23 1 -23 45 -2 25 12 35 23
35 40 0 28 -16 29 -52 2z"/>
<path d="M5417 5563 c-3 -21 -24 -132 -45 -248 -22 -115 -70 -367 -107 -560
-69 -369 -72 -381 -81 -372 -7 7 -70 330 -160 822 -36 198 -68 362 -70 364 -5
5 -10 -13 -27 -104 -44 -227 -214 -1013 -226 -1040 -4 -11 -16 -20 -27 -21
-10 0 -391 -1 -846 -2 l-828 -2 0 -25 0 -25 2005 0 2005 0 0 28 0 27 -663 4
c-364 2 -663 4 -663 5 -3 2 -103 450 -153 688 -42 197 -91 460 -91 491 0 4 -4
7 -9 7 -4 0 -11 -17 -14 -37z"/>
<path d="M4888 5546 c-18 -13 -25 -56 -10 -56 16 0 31 17 37 43 8 30 0 34 -27
13z"/>
<path d="M5460 5540 c0 -21 33 -60 50 -60 6 0 10 11 10 25 0 17 -9 29 -30 40
-29 15 -30 15 -30 -5z"/>
<path d="M4870 5415 c0 -28 15 -34 24 -9 10 25 7 34 -9 34 -9 0 -15 -9 -15
-25z"/>
<path d="M5485 5418 c10 -34 23 -44 31 -25 9 23 -2 47 -21 47 -12 0 -15 -6
-10 -22z"/>
<path d="M4867 5347 c-11 -29 -9 -43 4 -30 6 6 9 19 7 29 -3 18 -4 18 -11 1z"/>
<path d="M5507 5310 c3 -11 7 -20 9 -20 2 0 4 9 4 20 0 11 -4 20 -9 20 -5 0
-7 -9 -4 -20z"/>
<path d="M3200 4855 l0 -295 150 0 c143 0 150 1 150 20 0 19 -7 20 -130 20
l-130 0 0 275 c0 268 0 275 -20 275 -20 0 -20 -7 -20 -295z"/>
<path d="M3900 5147 c0 -2 45 -64 100 -137 l100 -133 0 -159 c0 -149 1 -158
19 -158 18 0 19 10 20 160 l2 159 94 127 c52 70 95 132 95 137 0 29 -46 -12
-118 -108 -46 -61 -87 -111 -92 -113 -4 -2 -46 49 -91 112 -64 87 -90 115
-106 116 -13 0 -23 -1 -23 -3z"/>
<path d="M4350 4854 l0 -294 150 0 c143 0 150 1 150 20 0 19 -7 20 -135 20
l-136 0 3 118 3 117 93 3 c73 2 92 6 92 17 0 12 -18 15 -95 15 l-95 0 0 120 0
120 130 0 c124 0 130 1 130 20 0 19 -6 20 -145 19 l-145 -1 0 -294z"/>
<path d="M3616 4888 c-116 -358 -108 -328 -86 -328 15 0 24 15 40 68 58 194
129 395 134 382 3 -8 35 -113 72 -232 56 -179 71 -218 86 -218 10 0 18 2 18 5
0 3 -38 125 -85 272 -47 147 -85 273 -85 280 0 44 -24 -15 -94 -229z"/>
<path d="M5887 5007 c-21 -67 -57 -185 -81 -262 -57 -184 -62 -205 -42 -205
11 0 28 42 61 148 112 356 102 330 114 299 6 -16 11 -32 11 -37 0 -4 29 -98
65 -209 54 -163 69 -201 84 -201 16 0 6 38 -76 292 -51 160 -94 293 -96 294
-2 2 -20 -52 -40 -119z"/>
<path d="M6130 4835 c0 -288 0 -295 20 -295 20 0 20 7 20 280 l0 280 63 0 c79
0 126 -22 150 -72 24 -50 15 -89 -29 -128 -24 -21 -45 -30 -69 -30 -19 0 -35
-2 -35 -5 0 -3 48 -77 107 -165 77 -115 112 -160 126 -160 27 0 21 10 -78 156
-47 68 -85 129 -85 134 0 5 16 16 35 24 47 20 75 68 75 131 0 106 -54 145
-204 145 l-96 0 0 -295z"/>
<path d="M6530 5115 c0 -10 16 -15 63 -17 l62 -3 3 -277 c2 -237 5 -278 17
-278 12 0 15 41 17 278 l3 277 68 3 c51 2 67 6 67 17 0 13 -25 15 -150 15
-124 0 -150 -2 -150 -15z"/>
<path d="M4740 4975 c0 -21 5 -25 30 -25 17 0 30 4 30 9 0 5 3 16 6 25 5 13
-1 16 -30 16 -32 0 -36 -3 -36 -25z"/>
<path d="M5578 4975 c4 -21 10 -25 38 -25 30 0 34 3 34 25 0 22 -4 25 -39 25
-35 0 -38 -2 -33 -25z"/>
<path d="M4740 4880 c0 -13 7 -20 19 -20 10 0 21 9 24 20 4 16 0 20 -19 20
-17 0 -24 -6 -24 -20z"/>
<path d="M5602 4868 c2 -15 11 -24 26 -26 18 -3 22 1 22 22 0 21 -5 26 -26 26
-21 0 -25 -4 -22 -22z"/>
<path d="M4740 4783 c1 -27 1 -27 15 -9 19 25 19 36 0 36 -10 0 -15 -10 -15
-27z"/>
<path d="M5626 4758 c14 -68 23 -75 23 -20 1 41 -2 52 -15 52 -12 0 -14 -7 -8
-32z"/>
<path d="M3955 4238 c-48 -28 -57 -70 -24 -112 15 -19 30 -26 54 -26 41 0 67
9 59 21 -3 5 -13 5 -24 -1 -25 -14 -68 -3 -80 20 -27 51 7 96 65 87 38 -6 49
7 13 17 -31 8 -40 7 -63 -6z"/>
<path d="M4215 4228 c-33 -29 -37 -78 -9 -109 24 -26 87 -26 114 1 66 66 -34
168 -105 108z m89 -14 c25 -25 20 -71 -10 -90 -55 -37 -117 25 -80 80 19 30
65 35 90 10z"/>
<path d="M4490 4175 c0 -85 17 -103 22 -22 l3 52 24 -42 c14 -24 28 -43 32
-43 4 0 19 19 33 43 l25 42 1 -52 c0 -29 5 -53 10 -53 6 0 10 32 10 75 0 41
-3 75 -7 75 -5 0 -21 -23 -36 -50 -16 -28 -31 -50 -35 -50 -4 0 -20 23 -35 50
-16 28 -32 50 -38 50 -5 0 -9 -34 -9 -75z"/>
<path d="M4810 4175 c0 -85 17 -103 22 -22 l3 52 25 -42 c14 -24 28 -43 32
-43 4 0 18 19 32 43 l26 42 1 -35 c0 -19 4 -44 9 -55 6 -14 9 5 9 58 1 42 -2
77 -6 77 -5 0 -21 -23 -36 -50 -16 -28 -31 -50 -35 -50 -4 0 -20 23 -35 50
-16 28 -32 50 -38 50 -5 0 -9 -34 -9 -75z"/>
<path d="M5140 4175 l0 -75 58 2 57 1 -50 6 c-45 5 -50 8 -50 31 0 21 4 25 27
22 15 -2 33 0 40 5 8 5 -1 10 -27 13 -32 4 -41 9 -43 28 -3 20 1 22 42 22 25
0 46 5 46 10 0 6 -22 10 -50 10 l-50 0 0 -75z"/>
<path d="M5400 4175 c0 -41 4 -75 9 -75 5 0 11 10 13 22 4 32 33 34 59 4 13
-14 27 -26 32 -26 6 0 2 9 -8 20 -17 19 -17 21 0 40 37 41 -3 90 -76 90 l-29
0 0 -75z m95 20 c0 -27 -3 -30 -37 -33 -38 -3 -38 -3 -38 33 0 36 0 36 38 33
34 -3 37 -6 37 -33z"/>
<path d="M5705 4238 c-51 -27 -60 -80 -20 -118 27 -25 78 -31 98 -11 9 9 4 10
-21 5 -44 -9 -82 17 -82 55 0 42 31 65 77 58 35 -6 36 -5 19 8 -23 18 -44 18
-71 3z"/>
<path d="M5950 4175 l0 -75 58 2 57 1 -48 6 c-26 3 -47 9 -47 14 0 4 0 14 0
22 0 10 11 15 35 15 47 0 45 18 -2 22 -30 2 -38 7 -38 23 0 16 8 21 43 23 59
4 53 22 -8 22 l-50 0 0 -75z"/>
</g>
</svg>
