<?xml version="1.0" standalone="no"?>
<!DOCTYPE svg PUBLIC "-//W3C//DTD SVG 20010904//EN"
 "http://www.w3.org/TR/2001/REC-SVG-20010904/DTD/svg10.dtd">
<svg version="1.0" xmlns="http://www.w3.org/2000/svg"
 width="724.000000pt" height="300.000000pt" viewBox="0 0 724.000000 300.000000"
 preserveAspectRatio="xMidYMid meet">

<g transform="translate(0.000000,300.000000) scale(0.100000,-0.100000)"
fill="#000000" stroke="none">
<path d="M4809 1736 c-2 -2 -3 -83 -1 -180 l3 -176 34 0 35 0 0 49 c0 28 4 52
9 55 5 3 25 -19 45 -49 32 -49 40 -55 71 -55 18 0 37 4 40 10 3 5 -12 36 -35
69 -22 33 -40 63 -40 66 0 4 16 26 36 50 39 48 38 65 -4 65 -33 0 -41 -6 -76
-52 -16 -21 -32 -38 -37 -38 -5 0 -9 43 -9 95 l0 95 -33 0 c-19 0 -36 -2 -38
-4z"/>
<path d="M4060 1676 c0 -25 -5 -35 -20 -39 -28 -7 -29 -67 -1 -67 16 0 19 -9
23 -76 3 -65 7 -79 27 -95 26 -21 78 -25 116 -7 43 20 25 63 -27 63 l-33 0 -3
58 -3 57 41 0 c41 0 41 1 38 33 -3 29 -6 32 -40 35 -36 3 -38 5 -38 38 0 33
-1 34 -40 34 -39 0 -40 -1 -40 -34z"/>
<path d="M2924 1627 c-2 -7 -3 -89 -2 -182 l3 -170 35 0 35 0 5 65 c3 38 8 60
13 53 5 -7 26 -13 48 -13 80 0 129 49 129 130 0 52 -22 96 -60 115 -33 17 -83
20 -110 5 -13 -7 -21 -7 -25 0 -9 15 -65 12 -71 -3z m162 -65 c23 -15 34 -50
25 -75 -23 -59 -111 -42 -111 21 0 46 51 78 86 54z"/>
<path d="M3284 1630 c-82 -33 -95 -164 -23 -225 32 -26 99 -34 129 -15 9 5 19
5 27 -1 6 -6 24 -9 40 -7 l28 3 0 125 0 125 -28 3 c-16 2 -34 -1 -40 -7 -8 -6
-18 -6 -27 -1 -18 12 -78 12 -106 0z m106 -80 c11 -11 20 -28 20 -38 0 -29
-29 -62 -56 -62 -29 0 -64 32 -64 60 0 11 9 29 20 40 11 11 29 20 40 20 11 0
29 -9 40 -20z"/>
<path d="M3506 1631 c-3 -4 12 -59 32 -122 29 -86 44 -116 60 -124 26 -12 27
-18 7 -39 -13 -12 -21 -13 -41 -4 -20 10 -27 8 -39 -8 -31 -41 -6 -64 67 -64
68 0 87 28 142 205 25 83 42 153 37 158 -5 5 -23 7 -41 5 -36 -3 -34 0 -65
-110 -9 -32 -20 -58 -24 -58 -4 0 -13 24 -20 53 -26 101 -36 117 -75 117 -19
0 -37 -4 -40 -9z"/>
<path d="M3814 1617 c-53 -46 -28 -120 45 -133 46 -9 73 -22 66 -35 -10 -14
-53 -11 -81 8 -24 15 -26 15 -47 -5 l-21 -22 22 -22 c17 -17 37 -23 86 -26 62
-4 67 -3 96 26 60 61 30 118 -72 136 -21 4 -40 11 -43 16 -11 18 26 23 65 10
32 -11 42 -11 55 0 39 32 -12 70 -94 70 -38 0 -56 -6 -77 -23z"/>
<path d="M4281 1614 c-91 -76 -43 -234 70 -234 22 0 49 5 59 10 13 7 21 7 25
0 8 -13 65 -13 65 0 3 79 0 232 -5 240 -9 14 -48 13 -63 -2 -9 -9 -15 -9 -24
0 -22 22 -94 14 -127 -14z m129 -64 c11 -11 20 -29 20 -40 0 -28 -35 -60 -64
-60 -27 0 -56 33 -56 62 0 24 35 58 60 58 11 0 29 -9 40 -20z"/>
<path d="M4593 1620 c-61 -37 -81 -116 -43 -177 40 -66 142 -85 199 -37 37 31
39 46 7 64 -20 10 -28 10 -47 -4 -47 -32 -99 -8 -99 46 0 52 58 74 101 39 21
-17 25 -17 46 -4 31 20 29 36 -8 67 -39 33 -108 36 -156 6z"/>
</g>
</svg>
