<svg width="24" height="24" viewBox="0 0 24 24" fill="none" xmlns="http://www.w3.org/2000/svg">
<path d="M13.2422 2.25015C13.0313 2.23258 12.7969 2.27359 12.586 2.3439C11.7393 2.62808 11.294 3.53629 11.5782 4.38297L12.2579 6.37515L8.41412 7.66422L7.78131 5.74234C7.49713 4.89566 6.58892 4.45035 5.74224 4.73453C4.89264 5.01871 4.42681 5.92691 4.71099 6.77359L5.34381 8.67203L3.35162 9.35172C2.50494 9.6359 2.05963 10.5675 2.34381 11.4142C2.62799 12.2609 3.53619 12.7062 4.38287 12.422L6.37506 11.7658L7.66412 15.5861L5.74224 16.2189C4.89556 16.5031 4.45025 17.4113 4.73443 18.258C5.01861 19.1076 5.92681 19.5734 6.77349 19.2892L8.67193 18.6564L9.35162 20.6486C9.6358 21.4953 10.5674 21.9406 11.4141 21.6564C12.2608 21.3722 12.7061 20.464 12.4219 19.6173L11.7657 17.6252L15.586 16.3361L16.2188 18.258C16.503 19.1046 17.4112 19.55 18.2579 19.2658C19.1075 18.9816 19.5733 18.0734 19.2891 17.2267L18.6563 15.3283L20.6485 14.6486C21.4952 14.3644 21.9405 13.4328 21.6563 12.5861C21.3721 11.7394 20.4639 11.2941 19.6172 11.5783L17.6251 12.2345L16.336 8.41422L18.2579 7.7814C19.1045 7.49722 19.5499 6.58902 19.2657 5.74234C18.9815 4.89566 18.0733 4.42691 17.2266 4.71109L15.3282 5.3439L14.6485 3.35172C14.4346 2.71597 13.8721 2.29996 13.2422 2.25015ZM13.2657 9.44547L14.5547 13.2658L10.7344 14.5548L9.44537 10.7345L13.2657 9.44547Z" fill="#4F46E5"/>
</svg>
