<svg width="24" height="24" viewBox="0 0 24 24" fill="none" xmlns="http://www.w3.org/2000/svg">
<path d="M12.8364 3.00869C11.3133 3.07712 9.79574 3.52587 8.26611 4.24062C7.80486 4.45287 7.63312 4.67349 7.45312 5.01699C7.03237 5.80149 6.79164 6.54409 6.64014 7.16884C5.77389 8.21434 5.15261 9.46046 4.87061 10.8412C4.43786 11.5762 4.01725 12.5322 3.92725 13.7577C3.92725 13.7577 3.89995 14.068 3.9082 14.08C2.46595 13.8917 0.79541 13.2055 0.79541 13.2055C1.16741 13.798 3.29913 14.2965 3.91113 14.5253C3.91113 14.5253 3.98139 18.5277 6.54639 19.8837C6.08514 19.1809 6.00293 19.059 6.00293 19.059C6.00293 19.059 4.66676 16.6155 4.89551 14.8065C4.92401 14.8065 4.95783 14.8153 4.98633 14.8153C5.96283 18.3853 9.20107 20.9999 13.0283 20.9999C13.2818 20.9999 13.5229 20.9923 13.7637 20.9721C14.3352 21.0336 14.8906 20.9916 15.4014 20.8124C15.6834 20.7224 15.9665 20.5507 16.2275 20.3715C19.0948 18.7747 20.3481 17.0213 21.2549 14.3378C21.4754 13.6845 21.585 12.8889 21.6548 12.2064C22.0103 8.84419 20.406 5.60405 17.436 4.05605C15.888 3.2513 14.3596 2.94025 12.8364 3.00869ZM13.0415 4.6332C17.3878 4.6332 20.9238 8.19176 20.9238 12.5785C20.9163 15.682 19.1348 18.378 16.5615 19.6845C15.969 19.8765 15.0829 20.0266 13.9189 19.8353C13.9189 19.8353 10.1987 18.8918 8.71143 15.432C10.2714 15.4605 10.852 15.4246 11.8975 15.2738C13.507 15.0413 15.1245 14.6124 16.5952 13.9262C17.0775 13.7057 17.0478 13.1334 16.9863 12.7089C16.9046 12.1861 16.5333 12.2147 16.1133 12.517C16.1133 12.517 12.7631 14.9094 8.35986 14.7099C7.59636 13.4026 7.26562 10.185 7.26562 10.185C8.95687 8.74721 10.6631 7.75082 14.1431 8.04482C14.1513 7.78307 14.2651 6.93688 13.3096 6.89638C13.3096 6.89638 9.49191 6.4428 7.34766 8.26455C7.44966 7.5903 7.58729 7.06718 7.80029 6.65468C9.19754 5.39693 11.0278 4.6332 13.0415 4.6332ZM6.46436 8.21035C6.46436 8.21035 6.41627 8.71376 6.43652 9.01601C6.29777 9.11801 6.0246 9.34688 5.69385 9.69863C5.9061 9.17513 6.15386 8.6716 6.46436 8.21035ZM6.40869 10.9394C6.40869 10.9394 6.47797 12.8993 7.05322 14.619L5.36133 14.3378C5.27208 13.962 5.21991 13.5831 5.19141 13.1908C5.37141 12.4881 5.73444 11.5934 6.40869 10.9394ZM5.51367 14.9384C6.11817 15.0689 6.9017 15.2489 7.27295 15.3104C8.3882 18.4477 11.6968 20.3876 11.6968 20.3876C11.7373 20.4078 11.7661 20.4166 11.8066 20.4286C8.82089 19.9546 6.38742 17.7854 5.51367 14.9384Z" fill="#4F46E5"/>
</svg>
