<svg width="19" height="19" viewBox="0 0 19 19" fill="none" xmlns="http://www.w3.org/2000/svg">
<path d="M17.7429 8.03286L15.9629 6.25286V3.72286C15.9629 3.32504 15.8048 2.94351 15.5235 2.6622C15.2422 2.3809 14.8607 2.22286 14.4629 2.22286H11.9329L10.1529 0.442861C10.0143 0.302571 9.84922 0.191187 9.66726 0.115166C9.4853 0.0391451 9.29006 0 9.09286 0C8.89566 0 8.70042 0.0391451 8.51846 0.115166C8.33651 0.191187 8.17145 0.302571 8.03286 0.442861L6.25286 2.22286H3.72286C3.32504 2.22286 2.94351 2.3809 2.6622 2.6622C2.3809 2.94351 2.22286 3.32504 2.22286 3.72286V6.25286L0.442861 8.03286C0.302571 8.17145 0.191187 8.33651 0.115166 8.51846C0.0391451 8.70042 0 8.89566 0 9.09286C0 9.29006 0.0391451 9.4853 0.115166 9.66726C0.191187 9.84922 0.302571 10.0143 0.442861 10.1529L2.22286 11.9329V14.4629C2.22286 14.8607 2.3809 15.2422 2.6622 15.5235C2.94351 15.8048 3.32504 15.9629 3.72286 15.9629H6.25286L8.03286 17.7429C8.17145 17.8832 8.33651 17.9945 8.51846 18.0706C8.70042 18.1466 8.89566 18.1857 9.09286 18.1857C9.29006 18.1857 9.4853 18.1466 9.66726 18.0706C9.84922 17.9945 10.0143 17.8832 10.1529 17.7429L11.9329 15.9629H14.4629C14.8607 15.9629 15.2422 15.8048 15.5235 15.5235C15.8048 15.2422 15.9629 14.8607 15.9629 14.4629V11.9329L17.7429 10.1529C17.8832 10.0143 17.9945 9.84922 18.0706 9.66726C18.1466 9.4853 18.1857 9.29006 18.1857 9.09286C18.1857 8.89566 18.1466 8.70042 18.0706 8.51846C17.9945 8.33651 17.8832 8.17145 17.7429 8.03286ZM13.2129 7.15286L8.28286 12.0929C8.21362 12.163 8.13107 12.2185 8.04005 12.2563C7.94904 12.2941 7.8514 12.3133 7.75286 12.3129C7.65407 12.3151 7.55591 12.2967 7.46464 12.2588C7.37338 12.2209 7.29103 12.1644 7.22286 12.0929L4.97286 9.84286C4.9021 9.77392 4.84587 9.6915 4.80747 9.60047C4.76907 9.50945 4.74929 9.41165 4.74929 9.31286C4.74929 9.21407 4.76907 9.11627 4.80747 9.02525C4.84587 8.93422 4.9021 8.85181 4.97286 8.78286C5.11349 8.64241 5.30411 8.56352 5.50286 8.56352C5.70161 8.56352 5.89224 8.64241 6.03286 8.78286L7.75286 10.5029L12.1529 6.09286C12.2935 5.95241 12.4841 5.87352 12.6829 5.87352C12.8816 5.87352 13.0722 5.95241 13.2129 6.09286C13.2836 6.16181 13.3399 6.24422 13.3783 6.33525C13.4166 6.42627 13.4364 6.52407 13.4364 6.62286C13.4364 6.72165 13.4166 6.81945 13.3783 6.91047C13.3399 7.0015 13.2836 7.08392 13.2129 7.15286Z" fill="#4F46E5"/>
</svg>
